<!-- Generated by IcoMoon.io -->
<svg version="1.1" xmlns="http://www.w3.org/2000/svg" width="94" height="94" viewBox="0 0 32 32">
<title>brain</title>
<path fill="#602f75" d="M18.982 32c-0.013 0-0.026 0-0.040-0-1.092-0.016-2.079-0.659-2.942-1.915-0.863 1.256-1.85 1.899-2.942 1.915-2.052 0.035-3.706-2.248-4.183-2.98-0.941-0.206-1.627-0.659-2.041-1.348-0.523-0.869-0.453-1.885-0.345-2.472-2.591-1.367-2.852-4.146-2.578-5.762-1.327-0.966-2.139-2.155-2.416-3.54-0.427-2.136 0.568-4.052 0.905-4.622-0.169-2.766 0.38-4.851 1.635-6.198 0.985-1.058 2.138-1.356 2.721-1.44 0.889-1.87 2.4-2.231 3.317-2.143 2.67-2.479 5.030-1.268 5.925-0.628 0.895-0.64 3.255-1.851 5.925 0.628 0.917-0.088 2.429 0.273 3.317 2.143 0.584 0.084 1.737 0.382 2.721 1.44 1.254 1.348 1.804 3.432 1.634 6.198 0.337 0.57 1.333 2.487 0.905 4.622-0.277 1.384-1.089 2.574-2.416 3.54 0.275 1.616 0.013 4.396-2.578 5.762 0.107 0.587 0.178 1.603-0.345 2.472-0.414 0.689-1.1 1.141-2.041 1.348-0.473 0.727-2.105 2.98-4.142 2.98zM15.99 28.481c0.203 0 0.412 0.111 0.509 0.289 0.763 1.392 1.59 2.105 2.459 2.117 0.008 0 0.016 0 0.024 0 1.449 0 2.886-1.909 3.32-2.649 0.083-0.142 0.226-0.241 0.389-0.268 0.732-0.122 1.244-0.413 1.519-0.867 0.51-0.841 0.131-2.025 0.128-2.037-0.090-0.274 0.044-0.574 0.31-0.687 3.156-1.346 2.32-4.904 2.283-5.055-0.056-0.228 0.037-0.468 0.232-0.598 1.741-1.155 2.515-2.664 2.299-4.484-0.168-1.413-0.884-2.507-0.892-2.517-0.068-0.103-0.101-0.226-0.092-0.349 0.181-2.522-0.26-4.38-1.311-5.524-1.017-1.107-2.252-1.135-2.304-1.136-0.225-0.003-0.429-0.141-0.513-0.349-0.851-2.118-2.458-1.745-2.474-1.74-0.188 0.047-0.389-0.008-0.527-0.146-1.134-1.129-2.302-1.563-3.467-1.29-0.892 0.209-1.473 0.768-1.479 0.773-0.104 0.102-0.245 0.16-0.391 0.16h-0.021c-0.147 0-0.288-0.058-0.393-0.162-0.004-0.004-0.585-0.563-1.477-0.772-1.166-0.272-2.333 0.161-3.467 1.29-0.138 0.137-0.338 0.192-0.527 0.146-0.161-0.037-1.65-0.311-2.474 1.74-0.085 0.211-0.289 0.349-0.516 0.349-0.049 0-1.284 0.029-2.301 1.136-1.051 1.143-1.492 3.002-1.311 5.524 0.009 0.124-0.024 0.247-0.093 0.35-0.006 0.010-0.723 1.103-0.891 2.516-0.216 1.82 0.558 3.329 2.299 4.484 0.197 0.13 0.29 0.371 0.232 0.599-0.037 0.15-0.873 3.708 2.283 5.054 0.267 0.114 0.402 0.413 0.309 0.689-0.003 0.010-0.382 1.194 0.128 2.035 0.275 0.454 0.786 0.746 1.519 0.867 0.163 0.027 0.305 0.125 0.389 0.267 0.439 0.745 1.894 2.661 3.345 2.65 0.869-0.013 1.695-0.726 2.458-2.117 0.098-0.178 0.285-0.288 0.489-0.288zM16.011 1.569v0z"></path>
<path fill="#fff" d="M21.719 7.788c0 0 0-2.591 3.125-3.628z"></path>
<path fill="#602f75" d="M21.719 8.342c-0.001 0-0.003 0-0.004 0-0.306-0.002-0.553-0.249-0.553-0.554 0-0.122 0.040-3.006 3.507-4.156 0.291-0.097 0.607 0.061 0.703 0.353s-0.061 0.607-0.353 0.703c-2.682 0.89-2.743 3.014-2.744 3.103-0.004 0.305-0.253 0.551-0.556 0.551z"></path>
<path fill="#fff" d="M22.24 17.635c0 0 1.594 4.296 5.208 1.555z"></path>
<path fill="#602f75" d="M25.178 20.662c-0.281 0-0.556-0.039-0.827-0.118-1.802-0.525-2.6-2.626-2.633-2.715-0.107-0.288 0.040-0.608 0.328-0.715s0.608 0.040 0.715 0.327c0.013 0.033 0.649 1.673 1.905 2.036 0.712 0.206 1.535-0.040 2.445-0.73 0.245-0.186 0.594-0.137 0.78 0.107s0.138 0.594-0.107 0.78c-0.902 0.685-1.776 1.029-2.606 1.029z"></path>
<path fill="#fff" d="M19.635 23.855c0 0 0.521-2.073-1.562-4.146z"></path>
<path fill="#602f75" d="M19.636 24.411c-0.045 0-0.090-0.006-0.136-0.017-0.297-0.075-0.478-0.375-0.405-0.672 0.019-0.083 0.393-1.82-1.414-3.62-0.218-0.217-0.219-0.569-0.002-0.787s0.569-0.219 0.787-0.002c2.281 2.27 1.734 4.579 1.71 4.676-0.063 0.253-0.29 0.421-0.539 0.421z"></path>
<path fill="#602f75" d="M24.772 15.158c-1.117 0-2.471-0.323-3.442-1.609-0.829-1.098-1.19-2.050-1.454-2.746-0.305-0.806-0.393-0.94-0.627-0.959-0.306-0.025-0.534-0.294-0.509-0.6s0.298-0.536 0.6-0.509c0.973 0.080 1.267 0.854 1.577 1.674 0.253 0.668 0.568 1.499 1.301 2.47 1.412 1.87 4.072 0.945 4.185 0.904 0.289-0.103 0.608 0.046 0.712 0.335s-0.044 0.607-0.333 0.712c-0.071 0.026-0.929 0.329-2.010 0.329z"></path>
<path fill="#602f75" d="M15.99 29.594c-0.307 0-0.556-0.249-0.556-0.556v-27.469c0-0.307 0.249-0.556 0.556-0.556s0.556 0.249 0.556 0.556v27.469c0 0.307-0.249 0.556-0.556 0.556z"></path>
<path fill="#fff" d="M19.507 5.801c0 0 0.054 3.664-1.827 6.037z"></path>
<path fill="#602f75" d="M17.68 12.394c-0.121 0-0.243-0.039-0.345-0.12-0.241-0.191-0.281-0.541-0.090-0.782 1.731-2.185 1.707-5.649 1.706-5.684-0.004-0.307 0.242-0.56 0.549-0.564 0.304 0.007 0.56 0.241 0.564 0.548 0.002 0.158 0.034 3.892-1.947 6.391-0.109 0.139-0.272 0.211-0.436 0.211z"></path>
<path fill="#fff" d="M18.073 26.446c0 0 1.042-3.11 3.125-3.11z"></path>
<path fill="#602f75" d="M18.073 27.003c-0.059 0-0.118-0.009-0.177-0.029-0.291-0.098-0.449-0.413-0.351-0.704 0.048-0.142 1.197-3.489 3.653-3.489 0.307 0 0.556 0.249 0.556 0.556s-0.249 0.556-0.556 0.556c-1.637 0-2.588 2.702-2.597 2.73-0.078 0.233-0.295 0.38-0.528 0.38z"></path>
<path fill="#602f75" d="M20.156 4.198c-0.116 0-0.233-0.036-0.333-0.111-0.246-0.184-0.296-0.533-0.113-0.779l1.337-1.788c0.184-0.247 0.533-0.297 0.779-0.112s0.296 0.533 0.113 0.779l-1.337 1.788c-0.109 0.146-0.277 0.223-0.446 0.223z"></path>
<path fill="#602f75" d="M10.415 14.979c-0.307 0-0.556-0.249-0.556-0.556v-5.546c0-0.307 0.249-0.556 0.556-0.556s0.556 0.249 0.556 0.556v5.546c0 0.307-0.249 0.556-0.556 0.556z"></path>
<path fill="#602f75" d="M12.087 14.979h-3.901c-0.307 0-0.556-0.249-0.556-0.556s0.249-0.556 0.556-0.556h3.901c0.307 0 0.556 0.249 0.556 0.556s-0.249 0.556-0.556 0.556z"></path>
<path fill="#602f75" d="M12.087 18.306c-0.307 0-0.556-0.249-0.556-0.556v-3.328c0-0.307 0.249-0.556 0.556-0.556s0.556 0.249 0.556 0.556v3.328c0 0.308-0.249 0.556-0.556 0.556z"></path>
<path fill="#602f75" d="M12.087 24.407c-0.307 0-0.556-0.249-0.556-0.556v-2.773c0-0.307 0.249-0.556 0.556-0.556s0.556 0.249 0.556 0.556v2.773c0 0.308-0.249 0.556-0.556 0.556z"></path>
<path fill="#00e7ff" d="M12.088 7.212c0 0.919-0.749 1.664-1.672 1.664s-1.672-0.745-1.672-1.664c0-0.919 0.749-1.664 1.672-1.664s1.672 0.745 1.672 1.664z"></path>
<path fill="#00e7ff" d="M10.415 9.432c-1.229 0-2.229-0.996-2.229-2.22s1-2.22 2.229-2.22 2.229 0.996 2.229 2.22-1 2.22-2.229 2.22zM10.415 6.105c-0.615 0-1.116 0.497-1.116 1.107s0.5 1.107 1.116 1.107 1.116-0.497 1.116-1.107-0.5-1.107-1.116-1.107z"></path>
<path fill="#00e7ff" d="M8.187 14.422c0 0.919-0.749 1.664-1.672 1.664s-1.672-0.745-1.672-1.664c0-0.919 0.749-1.664 1.672-1.664s1.672 0.745 1.672 1.664z"></path>
<path fill="#00e7ff" d="M6.514 16.643c-1.229 0-2.229-0.996-2.229-2.22s1-2.22 2.229-2.22 2.229 0.996 2.229 2.22-1 2.22-2.229 2.22zM6.514 13.315c-0.615 0-1.116 0.497-1.116 1.107s0.5 1.107 1.116 1.107 1.116-0.497 1.116-1.107c0-0.61-0.5-1.107-1.116-1.107z"></path>
<path fill="#00e7ff" d="M13.76 19.414c0 0.919-0.749 1.664-1.672 1.664s-1.672-0.745-1.672-1.664c0-0.919 0.749-1.664 1.672-1.664s1.672 0.745 1.672 1.664z"></path>
<path fill="#00e7ff" d="M12.087 21.634c-1.229 0-2.229-0.996-2.229-2.22s1-2.221 2.229-2.221 2.229 0.996 2.229 2.221c0 1.224-1 2.22-2.229 2.22zM12.087 18.306c-0.615 0-1.116 0.497-1.116 1.108s0.5 1.107 1.116 1.107 1.116-0.497 1.116-1.107c0-0.611-0.501-1.108-1.116-1.108z"></path>
<path fill="#ea3457" d="M26.58 8.323c0 0.613-0.5 1.109-1.116 1.109s-1.116-0.497-1.116-1.109c0-0.613 0.5-1.109 1.116-1.109s1.116 0.497 1.116 1.109z"></path>
<path fill="#ea3457" d="M20.45 15.532c0 0.613-0.5 1.109-1.116 1.109s-1.116-0.497-1.116-1.109c0-0.613 0.5-1.109 1.116-1.109s1.116 0.497 1.116 1.109z"></path>
<path fill="#ffe600" d="M27.136 17.196c0 0.613-0.5 1.109-1.116 1.109s-1.116-0.497-1.116-1.109c0-0.613 0.5-1.109 1.116-1.109s1.116 0.497 1.116 1.109z"></path>
<path fill="#ffe600" d="M20.45 28.842c0 0.613-0.5 1.109-1.116 1.109s-1.116-0.497-1.116-1.109c0-0.613 0.5-1.109 1.116-1.109s1.116 0.497 1.116 1.109z"></path>
<path fill="#ea3457" d="M23.235 26.070c0 0.613-0.5 1.109-1.116 1.109s-1.116-0.497-1.116-1.109c0-0.613 0.5-1.109 1.116-1.109s1.116 0.497 1.116 1.109z"></path>
<path fill="#00e7ff" d="M13.76 25.514c0 0.919-0.749 1.664-1.672 1.664s-1.672-0.745-1.672-1.664c0-0.919 0.749-1.664 1.672-1.664s1.672 0.745 1.672 1.664z"></path>
<path fill="#00e7ff" d="M12.087 27.735c-1.229 0-2.229-0.996-2.229-2.221s1-2.22 2.229-2.22c1.229 0 2.229 0.996 2.229 2.22s-1 2.221-2.229 2.221zM12.087 24.407c-0.615 0-1.116 0.497-1.116 1.107s0.5 1.108 1.116 1.108 1.116-0.497 1.116-1.108-0.501-1.107-1.116-1.107z"></path>
</svg>
