<!-- Generated by IcoMoon.io -->
<svg version="1.1" xmlns="http://www.w3.org/2000/svg" width="94" height="94" viewBox="0 0 32 32">
<title>cloud-computing</title>
<path d="M16.003 14.923c-0.881 0-1.598 0.717-1.598 1.598s0.717 1.599 1.598 1.599 1.599-0.717 1.599-1.599-0.717-1.598-1.599-1.598zM16.003 17.054c-0.294 0-0.533-0.239-0.533-0.533s0.239-0.533 0.533-0.533 0.533 0.239 0.533 0.533c0 0.294-0.239 0.533-0.533 0.533z"></path>
<path d="M16.003 8.529c-2.635 0-4.96 1.773-5.654 4.313l1.028 0.281c0.567-2.077 2.47-3.528 4.626-3.528 2.157 0 4.059 1.451 4.627 3.529l1.028-0.281c-0.694-2.54-3.019-4.314-5.655-4.314z"></path>
<path d="M16.003 11.605c-1.481 0-2.788 0.996-3.178 2.424l1.028 0.281c0.264-0.966 1.148-1.639 2.15-1.639s1.886 0.674 2.149 1.64l1.028-0.281c-0.39-1.427-1.698-2.424-3.178-2.424z"></path>
<path d="M11.74 21.85h1.066v1.066h-1.066v-1.066z"></path>
<path d="M11.74 23.981h1.066v1.066h-1.066v-1.066z"></path>
<path d="M11.74 26.113h1.066v1.066h-1.066v-1.066z"></path>
<path d="M28.001 11.726h-2.157c0.024-0.245 0.030-0.417 0.011-0.849-0.113-2.567-1.759-4.827-4.097-5.622-1.702-0.58-3.448-0.522-4.967 0.155-1.624-2.162-4.152-3.535-6.819-3.696-0.441-0.061-0.813-0.089-1.171-0.089-4.853 0-8.8 4.051-8.8 9.030 0 2.512 0.988 4.848 2.757 6.551 1.577 1.744 3.685 2.759 6.108 2.933 0.011 0.001 0.286 0.011 2.872 0.025l-0.004 0.616 1.066 0.006 0.006-1.149c0.001-0.142-0.055-0.278-0.154-0.378s-0.235-0.158-0.376-0.158c-3.006-0.014-3.368-0.029-3.349-0.026-2.13-0.154-3.99-1.048-5.405-2.61-1.584-1.527-2.456-3.59-2.456-5.81 0-4.392 3.47-7.965 7.735-7.965 0.309 0 0.635 0.025 1.066 0.083 2.569 0.157 4.87 1.473 6.311 3.611 0.153 0.228 0.453 0.302 0.694 0.172 1.35-0.727 2.964-0.831 4.542-0.294 1.925 0.655 3.282 2.528 3.376 4.661 0.020 0.459 0.011 0.547-0.022 0.837-0.013 0.114-0.029 0.255-0.046 0.45-0.013 0.149 0.036 0.297 0.137 0.408s0.243 0.173 0.393 0.173h2.748c1.618 0 2.934 1.431 2.934 3.188s-1.316 3.188-2.934 3.188c-0.029 0.001-8.801 0.018-8.801 0.018-0.294 0.001-0.532 0.239-0.532 0.533v6.47c-0.917 0.238-1.599 1.065-1.599 2.056 0 1.175 0.956 2.131 2.131 2.131s2.131-0.956 2.131-2.131c0-0.991-0.681-1.817-1.599-2.056v-5.938c1.897-0.004 8.221-0.016 8.268-0.016 2.205 0 3.999-1.908 3.999-4.254s-1.795-4.255-3.999-4.255zM20.265 28.244c0 0.588-0.478 1.066-1.066 1.066s-1.066-0.478-1.066-1.066c0-0.588 0.478-1.066 1.066-1.066s1.066 0.478 1.066 1.066z"></path>
<path d="M13.495 27.867l-1.222 1.222-1.222-1.222-0.753 0.753 1.598 1.599c0.104 0.104 0.24 0.156 0.377 0.156s0.273-0.052 0.377-0.156l1.598-1.599-0.753-0.753z"></path>
</svg>
