<!-- Generated by IcoMoon.io -->
<svg version="1.1" xmlns="http://www.w3.org/2000/svg" width="83" height="94" viewBox="0 0 21 32">
<title>dna</title>
<path fill="#43525b" d="M10.769 13.47h-2.647v-1.293h2.647v1.293z"></path>
<path fill="#ffab00" d="M13.151 13.47h-2.383v-1.293h2.383v1.293z"></path>
<path fill="#43525b" d="M10.769 11.141h-4.236v-1.293h4.236v1.293z"></path>
<path fill="#ffab00" d="M14.74 11.141h-3.972v-1.293h3.972v1.293z"></path>
<path fill="#43525b" d="M10.769 8.811h-5.824v-1.293h5.824v1.293z"></path>
<path fill="#ffab00" d="M16.328 8.811h-5.559v-1.293h5.559v1.293z"></path>
<path fill="#43525b" d="M10.769 6.481h-7.942v-1.293h7.942v1.293z"></path>
<path fill="#ffab00" d="M18.445 6.481h-7.677v-1.293h7.677v1.293z"></path>
<path fill="#43525b" d="M10.769 4.152h-9.001v-1.293h9.001v1.293z"></path>
<path fill="#ffab00" d="M19.504 4.152h-8.736v-1.293h8.736v1.293z"></path>
<path fill="#43525b" d="M10.769 1.823h-10.060v-1.293h10.060v1.293z"></path>
<path fill="#ffab00" d="M20.563 1.823h-9.795v-1.293h9.795v1.293z"></path>
<path fill="#43525b" d="M10.769 19.823h-2.647v-1.293h2.647v1.293z"></path>
<path fill="#ffab00" d="M13.151 19.823h-2.383v-1.293h2.383v1.293z"></path>
<path fill="#43525b" d="M10.769 22.153h-4.236v-1.293h4.236v1.293z"></path>
<path fill="#ffab00" d="M14.74 22.153h-3.972v-1.293h3.972v1.293z"></path>
<path fill="#43525b" d="M10.769 24.482h-5.824v-1.293h5.824v1.293z"></path>
<path fill="#ffab00" d="M16.328 24.482h-5.559v-1.293h5.559v1.293z"></path>
<path fill="#43525b" d="M10.769 26.812h-6.883v-1.293h6.883v1.293z"></path>
<path fill="#ffab00" d="M17.387 26.812h-6.618v-1.293h6.618v1.293z"></path>
<path fill="#43525b" d="M10.769 29.141h-7.413v-1.293h7.413v1.293z"></path>
<path fill="#ffab00" d="M17.916 29.141h-7.147v-1.293h7.147v1.293z"></path>
<path fill="#43525b" d="M10.769 31.471h-7.942v-1.293h7.942v1.293z"></path>
<path fill="#ffab00" d="M18.445 31.471h-7.677v-1.293h7.677v1.293z"></path>
<path fill="#43525b" d="M18.509 32c0 0 0 0-0.001 0-0.357 0-0.646-0.289-0.646-0.646 0.001-5.182-5.968-12.9-10.765-19.101-3.966-5.127-7.098-9.176-7.098-11.606 0-0.357 0.289-0.646 0.646-0.646s0.646 0.289 0.646 0.646c0 1.988 3.317 6.276 6.828 10.815 5.173 6.688 11.036 14.268 11.035 19.892 0 0.357-0.29 0.646-0.646 0.646v0z"></path>
<path fill="#43525b" d="M2.763 32c-0.357 0-0.646-0.289-0.646-0.646-0.001-5.624 5.862-13.204 11.036-19.892 3.511-4.539 6.828-8.827 6.828-10.815 0-0.357 0.29-0.646 0.646-0.646s0.646 0.289 0.646 0.646c0 2.43-3.133 6.479-7.098 11.607-4.797 6.201-10.766 13.918-10.765 19.1 0 0.357-0.289 0.646-0.646 0.646v0z"></path>
</svg>
