<!-- Generated by IcoMoon.io -->
<svg version="1.1" xmlns="http://www.w3.org/2000/svg" width="94" height="96" viewBox="0 0 30 32">
<title>head-brains</title>
<path fill="#ebeef0" d="M9.166 31.784c0.053-2.331-0.707-3.604-1.89-3.904-0.463-0.272-0.983-0.463-1.661-0.604l-0.316-0.057c-0.386-0.065-0.778-0.107-1.172-0.148-0.518-0.054-1.006-0.107-1.488-0.211l-0.25-0.048c-0.589-0.107-0.875-0.187-0.965-0.427-0.125-0.359 0.016-0.724 0.265-1.288l0.108-0.251c0.222-0.52 0.399-1.089 0.199-1.712-0.056-0.176-0.143-0.347-0.256-0.51 0.082-0.065 0.17-0.148 0.256-0.261 0.494-0.742-0.045-1.344-0.247-1.57-0.013-0.016-0.029-0.032-0.042-0.046 0.027-0.040 0.053-0.081 0.080-0.121 0.309-0.471 0.616-1.055 0.536-1.822-0.002-0.025-0.012-0.071-0.016-0.098-0.206-0.92-0.947-1.21-1.436-1.402-0.245-0.096-0.476-0.185-0.583-0.299-0.023-0.028-0.045-0.090-0.045-0.146l2.833-3.015c0.393-0.417 0.78-0.835 1.163-1.252 0.052-0.057 0.095-0.124 0.125-0.195l0.134-0.327c0.29-0.747-0.016-1.318-0.238-1.737l-0.1-0.194c-0.034-0.070-0.068-0.142-0.090-0.216-0.022-0.078-0.029-0.144-0.031-0.147 0.139-0.655 0.35-1.299 0.643-1.97 0.246-0.566 0.551-1.142 0.905-1.714 0.325-0.525 0.689-1.046 1.114-1.597 0.327-0.424 0.668-0.838 0.96-1.185 0.34-0.304 0.711-0.593 1.1-0.861 0.163-0.111 0.33-0.217 0.499-0.321 0.221-0.134 0.443-0.261 0.671-0.378 0.701-0.362 1.459-0.666 2.255-0.901 1.495-0.444 3.125-0.657 4.799-0.63 2.151 0.173 3.939 0.518 5.466 1.055 0.255 0.089 0.508 0.185 0.755 0.287 0.327 0.138 0.65 0.288 0.966 0.45 0.678 0.351 1.312 0.759 1.901 1.226 0.158 0.116 0.308 0.235 0.452 0.359 0.237 0.203 0.458 0.419 0.663 0.645 0.286 0.316 0.555 0.668 0.797 1.048 0.741 1.158 1.241 2.558 1.531 4.278 0.030 0.173 0.055 0.346 0.079 0.514l0.078 0.718c0.118 1.381 0.039 2.644-0.236 3.755-0.031 0.127-0.066 0.249-0.102 0.373-0.051 0.168-0.105 0.337-0.186 0.564-0.167 0.628-0.431 1.262-0.807 1.936-0.102 0.183-0.211 0.363-0.321 0.54-0.093 0.149-0.188 0.299-0.288 0.447-0.279 0.414-0.577 0.821-0.884 1.224-0.2 0.266-0.406 0.528-0.61 0.794-0.602 0.776-1.225 1.579-1.761 2.416-0.483 0.751-0.845 1.451-1.107 2.139-0.199 0.516-0.345 1.038-0.442 1.616-0.020 0.297-0.038 0.682-0.052 1.115-0.029 0.803-0.051 1.772-0.068 2.627l-0.005 0.282c-0.010 0.485 0.121 1.157 0.116 1.157z"></path>
<path fill="#ffab00" d="M11.991 7.019c0.196 0 0.387 0.021 0.574 0.053 0.244-2.173 2.085-3.863 4.324-3.863 1.868 0 3.456 1.179 4.075 2.83 0.264-0.068 0.539-0.109 0.824-0.109 1.803 0 3.265 1.463 3.265 3.266 0 0.438-0.087 0.855-0.243 1.236 1.086 0.357 1.876 1.368 1.876 2.574 0 1.503-1.218 2.722-2.721 2.722-1.804 0-3.81 1.462-3.81 3.266v0-3.266c0-1.202-0.975-2.177-2.177-2.177h-5.987c-1.803 0-3.265-1.462-3.265-3.266s1.462-3.266 3.265-3.266z"></path>
<path fill="#43525b" d="M29.916 10.867l-0.079-0.719c-0.024-0.17-0.050-0.344-0.079-0.516-0.297-1.762-0.815-3.202-1.582-4.402-0.254-0.397-0.536-0.768-0.841-1.105-0.217-0.239-0.453-0.469-0.701-0.682-0.152-0.131-0.311-0.258-0.459-0.365-0.597-0.474-1.255-0.899-1.955-1.261-0.322-0.166-0.651-0.318-0.989-0.461-0.252-0.103-0.508-0.201-0.766-0.291-1.538-0.541-3.33-0.888-5.521-1.063-1.709-0.026-3.345 0.188-4.861 0.639-0.81 0.239-1.586 0.549-2.306 0.921-0.236 0.121-0.465 0.252-0.696 0.392-0.172 0.106-0.342 0.215-0.512 0.33-0.402 0.276-0.784 0.575-1.134 0.888-0.022 0.020-0.043 0.041-0.061 0.063-0.291 0.344-0.629 0.755-0.953 1.175-0.429 0.556-0.796 1.082-1.121 1.608-0.363 0.587-0.674 1.175-0.922 1.748-0.303 0.694-0.521 1.361-0.666 2.040-0.017 0.079-0.018 0.16-0.005 0.239 0.006 0.038 0.019 0.121 0.047 0.218 0.031 0.106 0.077 0.208 0.132 0.321l0.102 0.199c0.227 0.426 0.363 0.737 0.204 1.149l-0.131 0.319c-0.372 0.405-0.747 0.809-1.128 1.214l-2.757 2.935c-0.111 0.118-0.172 0.274-0.172 0.435 0 0.196 0.069 0.399 0.216 0.578 0.202 0.215 0.491 0.328 0.801 0.448 0.516 0.203 0.89 0.387 1.011 0.933 0.057 0.546-0.169 0.976-0.416 1.353l-0.079 0.12c-0.161 0.241-0.098 0.607 0.096 0.823 0.331 0.371 0.322 0.544 0.208 0.718-0.042 0.055-0.086 0.101-0.139 0.143-0.263 0.209-0.318 0.586-0.126 0.861 0.075 0.107 0.13 0.217 0.166 0.328 0.124 0.385 0.020 0.767-0.173 1.22l-0.102 0.238c-0.241 0.543-0.491 1.105-0.272 1.734 0.225 0.6 0.86 0.715 1.415 0.816l0.228 0.043c0.518 0.112 1.049 0.168 1.521 0.217 0.369 0.039 0.736 0.078 1.089 0.137l0.292 0.053c0.589 0.123 1.029 0.281 1.424 0.514 0.052 0.031 0.108 0.054 0.166 0.068 1.239 0.314 1.384 2.12 1.36 3.168-0.008 0.351 0.27 0.642 0.621 0.65 0.005 0 0.010 0 0.015 0 0.344 0 0.628-0.275 0.635-0.621 0.074-3.216-1.324-4.143-2.229-4.406-0.494-0.279-1.049-0.476-1.75-0.622l-0.315-0.057c-0.387-0.065-0.779-0.107-1.181-0.15-0.544-0.057-0.961-0.104-1.395-0.198l-0.249-0.047c-0.089-0.016-0.32-0.058-0.459-0.099 0.016-0.156 0.122-0.406 0.248-0.692l0.106-0.247c0.252-0.591 0.474-1.304 0.214-2.111-0.022-0.068-0.047-0.136-0.076-0.203 0.304-0.457 0.518-1.151-0.031-1.968 0.284-0.49 0.535-1.122 0.453-1.914-0.003-0.036-0.015-0.099-0.028-0.168-0.251-1.128-1.105-1.545-1.656-1.768l2.247-2.391c0.384-0.408 0.763-0.816 1.138-1.226 0.102-0.111 0.182-0.238 0.24-0.378l0.135-0.329c0.387-0.998-0.019-1.762-0.26-2.213l-0.091-0.176c-0.011-0.023-0.024-0.047-0.036-0.082 0.126-0.547 0.309-1.090 0.557-1.657 0.225-0.518 0.506-1.052 0.838-1.587 0.302-0.488 0.644-0.979 1.046-1.501 0.302-0.39 0.615-0.773 0.888-1.096 0.302-0.267 0.629-0.522 0.97-0.756 0.151-0.102 0.306-0.201 0.46-0.296 0.202-0.123 0.406-0.239 0.615-0.347 0.649-0.336 1.35-0.616 2.084-0.832 1.394-0.415 2.898-0.612 4.439-0.589 2.039 0.164 3.727 0.489 5.162 0.994 0.237 0.083 0.472 0.172 0.697 0.265 0.303 0.128 0.603 0.266 0.895 0.417 0.627 0.325 1.215 0.704 1.767 1.142 0.14 0.102 0.274 0.209 0.401 0.319 0.209 0.18 0.407 0.372 0.588 0.572 0.256 0.284 0.496 0.598 0.712 0.936 0.673 1.052 1.131 2.337 1.399 3.929 0.028 0.162 0.052 0.324 0.071 0.462l0.075 0.684c0.109 1.274 0.037 2.435-0.214 3.449-0.028 0.115-0.060 0.225-0.091 0.333-0.046 0.155-0.096 0.31-0.186 0.567-0.15 0.563-0.388 1.132-0.727 1.739-0.094 0.169-0.193 0.334-0.295 0.497-0.088 0.14-0.176 0.28-0.269 0.418-0.238 0.354-0.505 0.723-0.842 1.164-0.135 0.18-0.274 0.359-0.412 0.538l-0.201 0.26c-0.587 0.757-1.193 1.539-1.722 2.366-0.493 0.767-0.865 1.486-1.136 2.197-0.214 0.554-0.366 1.109-0.471 1.759-0.020 0.295-0.038 0.677-0.052 1.107-0.028 0.785-0.050 1.731-0.067 2.568l-0.005 0.274c-0.008 0.433 0.077 0.965 0.117 1.215l0.631-0.076-0.48-0.417 0.965 0.829c0.191-0.225 0.153-0.461 0.133-0.588-0.025-0.153-0.1-0.62-0.093-0.939l0.005-0.273c0.016-0.829 0.038-1.768 0.066-2.549 0.014-0.413 0.030-0.779 0.043-1.002 0.084-0.503 0.213-0.977 0.397-1.452 0.24-0.63 0.573-1.273 1.019-1.965 0.499-0.78 1.087-1.539 1.683-2.307l0.176-0.228c0.142-0.183 0.283-0.366 0.419-0.547 0.35-0.458 0.63-0.846 0.884-1.223 0.1-0.15 0.196-0.3 0.291-0.452 0.114-0.182 0.225-0.366 0.328-0.552 0.391-0.7 0.667-1.364 0.83-1.981 0.083-0.233 0.139-0.407 0.192-0.584 0.038-0.129 0.073-0.257 0.106-0.388 0.284-1.149 0.367-2.449 0.245-3.877z"></path>
<path fill="#43525b" d="M27.012 13.086c0-1.203-0.657-2.287-1.686-2.858 0.064-0.279 0.096-0.563 0.096-0.851 0-2.243-1.945-4.059-4.239-3.79-0.823-1.619-2.507-2.674-4.345-2.674-2.272 0-4.207 1.556-4.732 3.709-2.107-0.017-3.85 1.699-3.85 3.814 0 2.104 1.711 3.815 3.815 3.815h5.828c0.818 0 1.484 0.665 1.484 1.483v3.179c0 0.351 0.285 0.636 0.636 0.636s0.636-0.285 0.636-0.636c0-1.409 1.681-2.543 3.072-2.543 1.811 0 3.285-1.473 3.285-3.285zM20.655 16.299v-0.564c0-1.519-1.236-2.755-2.756-2.755h-5.828c-1.402 0-2.543-1.141-2.543-2.543s1.141-2.542 2.543-2.542c0.143 0 0.289 0.014 0.448 0.042 0.172 0.030 0.35-0.012 0.491-0.117s0.231-0.264 0.251-0.438c0.205-1.822 1.742-3.195 3.577-3.195 1.491 0 2.846 0.941 3.371 2.342 0.115 0.305 0.44 0.473 0.755 0.393 0.224-0.058 0.434-0.086 0.643-0.086 1.402 0 2.543 1.141 2.543 2.543 0 0.331-0.064 0.655-0.19 0.963-0.067 0.163-0.062 0.347 0.011 0.507s0.211 0.283 0.379 0.338c0.831 0.273 1.389 1.037 1.389 1.901 0 1.11-0.903 2.013-2.013 2.013-1.080 0-2.228 0.453-3.072 1.2z"></path>
<path fill="#43525b" d="M16.839 9.272h1.060v1.272h-1.060v-1.272z"></path>
<path fill="#43525b" d="M14.72 9.272h1.059v1.272h-1.059v-1.272z"></path>
<path fill="#43525b" d="M18.959 9.272h1.060v1.272h-1.060v-1.272z"></path>
</svg>
