<?xml version="1.0" encoding="UTF-8" standalone="no"?><!DOCTYPE svg PUBLIC "-//W3C//DTD SVG 1.1//EN" "http://www.w3.org/Graphics/SVG/1.1/DTD/svg11.dtd"><svg width="163px" height="48px" version="1.1" xmlns="http://www.w3.org/2000/svg" xmlns:xlink="http://www.w3.org/1999/xlink" xml:space="preserve" xmlns:serif="http://www.serif.com/" style="fill-rule:evenodd;clip-rule:evenodd;stroke-linejoin:round;stroke-miterlimit:1.41421;"><g><ellipse cx="13.026" cy="34.58" rx="13.026" ry="13.018" style="fill:rgb(0,6,10);"/><ellipse cx="46.381" cy="34.58" rx="13.026" ry="13.018" style="fill:rgb(255,4,55);"/><ellipse cx="83.568" cy="34.58" rx="13.026" ry="13.018" style="fill:rgb(255,205,55);"/><ellipse cx="118.026" cy="34.58" rx="13.026" ry="13.018" style="fill:rgb(2,207,250);"/><rect x="117.345" y="25.917" width="1.505" height="16.203" style="fill:rgb(0,6,10);fill-opacity:0.598949;fill-rule:nonzero;"/><rect x="82.68" y="25.917" width="1.505" height="16.203" style="fill:white;fill-opacity:0.907098;fill-rule:nonzero;"/><path d="M159.533,41.884l1.702,0c-1.435,1.786 -2.762,3.038 -3.983,3.755c-1.734,1.006 -3.709,1.509 -5.925,1.509c-2.345,0 -4.508,-0.554 -6.488,-1.661c-1.981,-1.108 -3.525,-2.619 -4.633,-4.534c-1.108,-1.915 -1.662,-4.007 -1.662,-6.275c0,-2.301 0.559,-4.441 1.678,-6.42c1.119,-1.979 2.642,-3.517 4.569,-4.614c1.927,-1.097 4.036,-1.645 6.327,-1.645c3.233,0 5.963,1.035 8.19,3.105c2.227,2.071 3.34,4.481 3.34,7.23c0,2.001 -0.463,3.726 -1.389,5.176c-0.926,1.45 -2.181,2.576 -3.766,3.379c-1.21,0.62 -2.243,0.93 -3.099,0.93c-0.621,0 -1.114,-0.165 -1.478,-0.497c-0.278,-0.246 -0.422,-0.674 -0.433,-1.284c-0.364,0.46 -0.865,0.845 -1.502,1.155c-0.637,0.311 -1.298,0.466 -1.983,0.466c-1.542,0 -2.816,-0.532 -3.822,-1.597c-1.006,-1.065 -1.509,-2.474 -1.509,-4.229c0,-1.894 0.61,-3.622 1.83,-5.184c1.221,-1.562 2.902,-2.343 5.043,-2.343c0.942,0 1.731,0.177 2.368,0.53c0.637,0.353 1.24,0.968 1.807,1.845l0.418,-2.214l1.734,0l-1.863,10.496c-0.053,0.342 -0.08,0.561 -0.08,0.658c0,0.246 0.075,0.438 0.225,0.577c0.149,0.139 0.342,0.209 0.578,0.209c0.631,0 1.453,-0.366 2.465,-1.099c1.011,-0.733 1.798,-1.675 2.36,-2.825c0.562,-1.15 0.843,-2.426 0.843,-3.828c0,-2.717 -1.054,-4.969 -3.163,-6.756c-1.97,-1.659 -4.368,-2.488 -7.194,-2.488c-2.099,0 -4.002,0.479 -5.709,1.437c-1.708,0.957 -3.057,2.305 -4.047,4.044c-0.99,1.739 -1.486,3.619 -1.486,5.641c0,2.044 0.498,3.929 1.494,5.657c0.996,1.728 2.374,3.084 4.135,4.069c1.761,0.984 3.702,1.476 5.821,1.476c1.553,0 2.96,-0.278 4.224,-0.834c1.263,-0.557 2.617,-1.562 4.063,-3.017Zm-9.732,-2.039c0.707,0 1.37,-0.222 1.991,-0.666c0.621,-0.444 1.114,-1.11 1.478,-1.998c0.471,-1.166 0.706,-2.338 0.706,-3.514c0,-1.081 -0.302,-1.958 -0.907,-2.632c-0.605,-0.675 -1.389,-1.012 -2.353,-1.012c-1.284,0 -2.395,0.527 -3.332,1.581c-0.937,1.054 -1.405,2.367 -1.405,3.94c0,1.316 0.356,2.362 1.068,3.138c0.712,0.775 1.63,1.163 2.754,1.163Z" style="fill:rgb(0,6,10);fill-opacity:0.598949;fill-rule:nonzero;"/><path d="M6.424,21.151l1.948,0l0,8.552c0.789,-1.039 1.656,-1.815 2.602,-2.33c0.946,-0.514 1.971,-0.771 3.075,-0.771c1.132,0 2.136,0.287 3.012,0.862c0.877,0.575 1.524,1.346 1.941,2.315c0.418,0.969 0.627,2.487 0.627,4.554l0,7.787l-1.948,0l0,-7.217c0,-1.743 -0.07,-2.906 -0.209,-3.49c-0.241,-1.001 -0.68,-1.754 -1.315,-2.26c-0.635,-0.505 -1.468,-0.758 -2.498,-0.758c-1.178,0 -2.233,0.39 -3.165,1.168c-0.932,0.779 -1.547,1.743 -1.844,2.893c-0.185,0.741 -0.278,2.113 -0.278,4.116l0,5.548l-1.948,0l0,-20.969Z" style="fill:white;fill-opacity:0.959643;fill-rule:nonzero;"/><path d="M51.749,36.992l1.557,0.818c-0.51,1.001 -1.1,1.81 -1.768,2.425c-0.668,0.615 -1.42,1.083 -2.255,1.404c-0.836,0.321 -1.781,0.481 -2.836,0.481c-2.339,0 -4.169,-0.767 -5.488,-2.3c-1.319,-1.534 -1.978,-3.267 -1.978,-5.201c0,-1.819 0.558,-3.44 1.675,-4.864c1.416,-1.81 3.311,-2.715 5.685,-2.715c2.445,0 4.397,0.927 5.857,2.781c1.037,1.309 1.565,2.944 1.582,4.904l-12.9,0c0.035,1.67 0.567,3.038 1.596,4.106c1.029,1.068 2.3,1.602 3.812,1.602c0.73,0 1.44,-0.128 2.131,-0.382c0.69,-0.255 1.277,-0.594 1.761,-1.015c0.483,-0.422 1.006,-1.103 1.569,-2.044Zm0,-3.862c-0.246,-0.984 -0.604,-1.771 -1.075,-2.36c-0.47,-0.589 -1.092,-1.063 -1.866,-1.424c-0.774,-0.36 -1.588,-0.54 -2.441,-0.54c-1.407,0 -2.616,0.453 -3.627,1.358c-0.739,0.659 -1.297,1.648 -1.675,2.966l10.684,0Z" style="fill:rgb(0,6,10);fill-opacity:0.598949;fill-rule:nonzero;"/><path d="M12.639,1.723l-1.023,1.089c-0.849,-0.851 -1.679,-1.277 -2.49,-1.277c-0.515,0 -0.956,0.176 -1.324,0.527c-0.367,0.352 -0.551,0.762 -0.551,1.231c0,0.414 0.151,0.809 0.454,1.184c0.304,0.382 0.94,0.832 1.91,1.347c1.182,0.633 1.986,1.242 2.41,1.828c0.417,0.594 0.625,1.262 0.625,2.004c0,1.047 -0.356,1.934 -1.068,2.66c-0.713,0.727 -1.603,1.09 -2.672,1.09c-0.712,0 -1.392,-0.16 -2.04,-0.48c-0.648,-0.321 -1.184,-0.762 -1.608,-1.324l1,-1.172c0.811,0.945 1.671,1.418 2.58,1.418c0.637,0 1.179,-0.211 1.626,-0.633c0.447,-0.422 0.67,-0.918 0.67,-1.488c0,-0.469 -0.147,-0.887 -0.443,-1.254c-0.295,-0.36 -0.962,-0.813 -2.001,-1.36c-1.114,-0.593 -1.871,-1.179 -2.273,-1.758c-0.402,-0.578 -0.602,-1.238 -0.602,-1.98c0,-0.969 0.32,-1.773 0.96,-2.414c0.64,-0.641 1.449,-0.961 2.427,-0.961c1.137,0 2.281,0.574 3.433,1.723Z" style="fill:rgb(0,6,10);fill-rule:nonzero;"/><path d="M29.177,0.328l0,12.75l-1.569,0l0,-2.191c-0.667,0.836 -1.415,1.465 -2.245,1.886c-0.83,0.422 -1.737,0.633 -2.722,0.633c-1.751,0 -3.246,-0.654 -4.485,-1.963c-1.239,-1.308 -1.858,-2.9 -1.858,-4.775c0,-1.836 0.625,-3.406 1.875,-4.711c1.251,-1.305 2.755,-1.957 4.513,-1.957c1.016,0 1.934,0.223 2.757,0.668c0.822,0.445 1.544,1.113 2.165,2.004l0,-2.344l1.569,0Zm-6.366,1.254c-0.887,0 -1.705,0.225 -2.455,0.674c-0.75,0.449 -1.347,1.08 -1.791,1.892c-0.443,0.813 -0.665,1.672 -0.665,2.579c0,0.898 0.224,1.757 0.671,2.578c0.447,0.82 1.048,1.459 1.802,1.916c0.754,0.457 1.563,0.685 2.427,0.685c0.871,0 1.697,-0.226 2.478,-0.679c0.78,-0.454 1.381,-1.067 1.801,-1.84c0.421,-0.774 0.631,-1.645 0.631,-2.614c0,-1.476 -0.471,-2.711 -1.415,-3.703c-0.943,-0.992 -2.105,-1.488 -3.484,-1.488Z" style="fill:rgb(0,6,10);fill-rule:nonzero;"/><path d="M32.824,0.328l1.683,0l4.251,9.82l4.126,-9.82l1.694,0l-7.377,17.414l-1.683,0l2.387,-5.625l-5.081,-11.789Z" style="fill:rgb(0,6,10);fill-rule:nonzero;"/></g></svg>