<!-- Generated by IcoMoon.io -->
<svg version="1.1" xmlns="http://www.w3.org/2000/svg" width="94" height="94" viewBox="0 0 32 32">
<title>laboratory</title>
<path d="M18.147 27l-6.814-10.533v-8.467c0-0.368-0.299-0.667-0.667-0.667h-3.333c-0.368 0-0.667 0.298-0.667 0.667v8.485l-6.213 10.561c-0.297 0.505-0.454 1.081-0.454 1.667-0 1.815 1.471 3.287 3.287 3.287h12.14c0.624-0 1.235-0.18 1.759-0.519 1.503-0.972 1.934-2.978 0.962-4.481zM15.427 30.667h-12.14c-0.349 0.001-0.693-0.093-0.994-0.27-0.93-0.547-1.24-1.744-0.693-2.674l6.308-10.718c0.060-0.102 0.092-0.219 0.092-0.338v-8h2v8c-0 0.128 0.037 0.254 0.107 0.362l6.92 10.695c0.2 0.308 0.306 0.668 0.306 1.035 0 1.053-0.853 1.907-1.906 1.907z"></path>
<path d="M9.603 19.382l-1.149-0.675-5.661 9.622c-0.060 0.103-0.092 0.22-0.092 0.339 0 0.368 0.299 0.666 0.667 0.666h4.631v-1.333h-3.467l5.070-8.618z"></path>
<path d="M30.391 15.333h-10.391c-1.473 0-2.667 1.194-2.667 2.667v10.667c0.002 1.84 1.493 3.331 3.333 3.333h6c1.84-0.002 3.331-1.493 3.333-3.333v-9.057l1.529-1.529c0.301-0.302 0.47-0.71 0.47-1.136 0.001-0.889-0.72-1.61-1.609-1.611zM30.586 17.138l-1.724 1.724c-0.125 0.125-0.195 0.295-0.195 0.471v9.333c0 1.105-0.895 2-2 2h-6c-1.105 0-2-0.895-2-2v-10.667c0-0.736 0.597-1.333 1.333-1.333h10.391c0.073-0 0.144 0.029 0.196 0.081 0.108 0.108 0.108 0.283-0 0.39z"></path>
<path d="M26 19.333v8.667h-2v1.333h2.667c0.368 0 0.667-0.299 0.667-0.667v-9.333h-1.333z"></path>
<path d="M18.667 9.656v-8.989c0-0.368-0.298-0.667-0.667-0.667h-4.667c-0.368 0-0.667 0.298-0.667 0.667v9.179c-0.814 0.251-1.596 0.592-2.333 1.018l0.667 1.154c0.783-0.452 1.624-0.796 2.5-1.022 0.294-0.076 0.5-0.342 0.5-0.646v-9.016h3.333v8.861c0 0.32 0.228 0.595 0.542 0.655 2.338 0.447 4.44 1.712 5.929 3.569l1.039-0.835c-1.569-1.955-3.741-3.336-6.177-3.927z"></path>
<path d="M28.333 9.333c-1.289 0-2.333 1.045-2.333 2.333s1.045 2.333 2.333 2.333c1.289 0 2.333-1.045 2.333-2.333s-1.045-2.333-2.333-2.333zM28.333 12.667c-0.552 0-1-0.448-1-1s0.448-1 1-1 1 0.448 1 1-0.448 1-1 1z"></path>
<path d="M26 4.667c-1.105 0-2 0.895-2 2s0.895 2 2 2 2-0.895 2-2c0-1.105-0.895-2-2-2zM26 7.333c-0.368 0-0.667-0.298-0.667-0.667s0.299-0.667 0.667-0.667c0.368 0 0.667 0.298 0.667 0.667s-0.299 0.667-0.667 0.667z"></path>
<path d="M2.333 5.333c-1.289 0-2.333 1.045-2.333 2.333s1.045 2.333 2.333 2.333 2.333-1.045 2.333-2.333c0-1.289-1.045-2.333-2.333-2.333zM2.333 8.667c-0.552 0-1-0.448-1-1s0.448-1 1-1c0.552 0 1 0.448 1 1s-0.448 1-1 1z"></path>
<path d="M5.333 0.667c-1.105 0-2 0.895-2 2s0.895 2 2 2c1.105 0 2-0.895 2-2s-0.895-2-2-2zM5.333 3.333c-0.368 0-0.667-0.298-0.667-0.667s0.298-0.667 0.667-0.667 0.667 0.298 0.667 0.667c0 0.368-0.298 0.667-0.667 0.667z"></path>
<path d="M20 19.333h2v1.333h-2v-1.333z"></path>
<path d="M20 22h1.333v1.333h-1.333v-1.333z"></path>
<path d="M20 24.667h2v1.333h-2v-1.333z"></path>
<path d="M20 27.333h1.333v1.333h-1.333v-1.333z"></path>
<path d="M1.333 12h1.333v1.333h-1.333v-1.333z"></path>
<path d="M3.333 15.333h1.333v1.333h-1.333v-1.333z"></path>
<path d="M14.667 18h1.333v1.333h-1.333v-1.333z"></path>
<path d="M13.333 15.333h1.333v1.333h-1.333v-1.333z"></path>
<path d="M12.667 12.667h1.333v1.333h-1.333v-1.333z"></path>
<path d="M13.333 27.333h1.333v1.333h-1.333v-1.333z"></path>
<path d="M11.333 24.667h1.333v1.333h-1.333v-1.333z"></path>
</svg>
