<?xml version="1.0" encoding="UTF-8" standalone="no"?><!DOCTYPE svg PUBLIC "-//W3C//DTD SVG 1.1//EN" "http://www.w3.org/Graphics/SVG/1.1/DTD/svg11.dtd"><svg width="206px" height="218px" version="1.1" xmlns="http://www.w3.org/2000/svg" xmlns:xlink="http://www.w3.org/1999/xlink" xml:space="preserve" xmlns:serif="http://www.serif.com/" style="fill-rule:evenodd;clip-rule:evenodd;stroke-linecap:square;stroke-miterlimit:1.5;"><g><rect x="0" y="79.017" width="205.838" height="45.365" style="fill:rgb(255,4,55);"/><path d="M8.16,162.061l-1.554,0.846c-0.44,-0.559 -1.031,-0.839 -1.773,-0.839c-0.5,0 -0.942,0.107 -1.327,0.32c-0.385,0.213 -0.692,0.521 -0.921,0.924c-0.229,0.404 -0.344,0.83 -0.344,1.279c0,0.577 0.181,1.04 0.543,1.389c0.362,0.348 0.86,0.522 1.492,0.522c0.875,0 1.547,-0.296 2.014,-0.887l1.444,1.018c-0.408,0.485 -0.916,0.866 -1.523,1.141c-0.607,0.275 -1.284,0.412 -2.031,0.412c-1.164,0 -2.082,-0.32 -2.754,-0.962c-0.671,-0.642 -1.007,-1.49 -1.007,-2.544c0,-1.205 0.415,-2.233 1.245,-3.083c0.829,-0.85 1.897,-1.275 3.203,-1.275c1.471,0 2.569,0.58 3.293,1.739Z" style="fill:rgb(255,205,55);fill-rule:nonzero;"/><path d="M10.301,160.514l1.636,0l-0.13,1.018c0.49,-0.807 1.079,-1.21 1.766,-1.21c0.165,0 0.337,0.043 0.516,0.13l-0.66,1.657c-0.137,-0.041 -0.238,-0.062 -0.302,-0.062c-0.353,0 -0.668,0.208 -0.946,0.622c-0.277,0.415 -0.496,1.253 -0.656,2.513l-0.358,2.812l-1.842,0l0.976,-7.48Z" style="fill:rgb(255,205,55);fill-rule:nonzero;"/><path d="M20.279,165.801l1.616,0.839c-0.362,0.476 -0.842,0.853 -1.441,1.13c-0.598,0.278 -1.261,0.416 -1.99,0.416c-1.141,0 -2.04,-0.32 -2.698,-0.962c-0.658,-0.642 -0.986,-1.494 -0.986,-2.557c0,-1.215 0.411,-2.243 1.234,-3.084c0.822,-0.841 1.816,-1.261 2.98,-1.261c0.701,0 1.325,0.153 1.873,0.46c0.548,0.307 0.98,0.754 1.296,1.341c0.316,0.587 0.474,1.224 0.474,1.911c0,0.216 -0.023,0.468 -0.069,0.756l-5.967,0c0.019,0.518 0.189,0.931 0.512,1.238c0.324,0.307 0.769,0.46 1.338,0.46c0.687,0 1.297,-0.229 1.828,-0.687Zm0.468,-2.358c-0.138,-0.458 -0.367,-0.806 -0.688,-1.042c-0.321,-0.236 -0.708,-0.354 -1.162,-0.354c-0.449,0 -0.854,0.122 -1.216,0.365c-0.362,0.243 -0.637,0.586 -0.825,1.031l3.891,0Z" style="fill:rgb(255,205,55);fill-rule:nonzero;"/><path d="M30.56,160.514l1.835,0l-0.976,7.48l-1.815,0l0.103,-0.804c-0.398,0.371 -0.771,0.63 -1.117,0.776c-0.346,0.147 -0.734,0.22 -1.165,0.22c-0.99,0 -1.777,-0.364 -2.362,-1.093c-0.584,-0.728 -0.876,-1.576 -0.876,-2.543c0,-0.738 0.186,-1.441 0.557,-2.107c0.371,-0.667 0.869,-1.187 1.495,-1.561c0.626,-0.373 1.28,-0.56 1.963,-0.56c0.458,0 0.881,0.105 1.268,0.316c0.387,0.211 0.707,0.518 0.959,0.921l0.131,-1.045Zm-2.709,6.036c0.449,0 0.841,-0.101 1.176,-0.302c0.334,-0.202 0.615,-0.518 0.842,-0.949c0.227,-0.431 0.34,-0.871 0.34,-1.32c0,-0.591 -0.171,-1.067 -0.512,-1.426c-0.341,-0.36 -0.792,-0.54 -1.351,-0.54c-0.651,0 -1.203,0.241 -1.657,0.722c-0.453,0.481 -0.68,1.102 -0.68,1.863c0,0.586 0.172,1.058 0.515,1.416c0.344,0.357 0.786,0.536 1.327,0.536Z" style="fill:rgb(255,205,55);fill-rule:nonzero;"/><path d="M35.224,157.737l1.828,0l-0.385,2.777l1.162,0l-0.22,1.581l-1.155,0l-0.804,5.899l-1.836,0l0.812,-5.899l-0.901,0l0.213,-1.581l0.901,0l0.385,-2.777Z" style="fill:rgb(255,205,55);fill-rule:nonzero;"/><path d="M40.383,157.455c0.311,0 0.578,0.111 0.801,0.334c0.222,0.222 0.333,0.489 0.333,0.8c0,0.312 -0.111,0.579 -0.333,0.801c-0.223,0.223 -0.49,0.334 -0.801,0.334c-0.312,0 -0.579,-0.111 -0.801,-0.334c-0.223,-0.222 -0.334,-0.489 -0.334,-0.801c0,-0.311 0.111,-0.578 0.334,-0.8c0.222,-0.223 0.489,-0.334 0.801,-0.334Zm-1.142,3.059l1.815,0l-1.003,7.48l-1.829,0l1.017,-7.48Z" style="fill:rgb(255,205,55);fill-rule:nonzero;"/><path d="M42.331,160.514l1.801,0l1.169,4.159l2.399,-4.159l1.994,0l-4.338,7.48l-0.887,0l-2.138,-7.48Z" style="fill:rgb(255,205,55);fill-rule:nonzero;"/><path d="M56.18,165.801l1.615,0.839c-0.362,0.476 -0.842,0.853 -1.44,1.13c-0.598,0.278 -1.262,0.416 -1.99,0.416c-1.141,0 -2.041,-0.32 -2.699,-0.962c-0.657,-0.642 -0.986,-1.494 -0.986,-2.557c0,-1.215 0.411,-2.243 1.234,-3.084c0.823,-0.841 1.816,-1.261 2.98,-1.261c0.701,0 1.326,0.153 1.873,0.46c0.548,0.307 0.98,0.754 1.296,1.341c0.316,0.587 0.475,1.224 0.475,1.911c0,0.216 -0.023,0.468 -0.069,0.756l-5.967,0c0.018,0.518 0.189,0.931 0.512,1.238c0.323,0.307 0.769,0.46 1.337,0.46c0.687,0 1.297,-0.229 1.829,-0.687Zm0.467,-2.358c-0.137,-0.458 -0.367,-0.806 -0.687,-1.042c-0.321,-0.236 -0.708,-0.354 -1.162,-0.354c-0.449,0 -0.855,0.122 -1.217,0.365c-0.362,0.243 -0.637,0.586 -0.825,1.031l3.891,0Z" style="fill:rgb(255,205,55);fill-rule:nonzero;"/><path d="M106.047,208.076l0,-199.062l78.567,0l0,143.217l-58.074,0" style="fill:none;stroke:rgb(255,4,55);stroke-width:10px;"/><path d="M0.247,184.076l1.146,-0.687c0.807,1.485 1.739,2.227 2.796,2.227c0.452,0 0.877,-0.105 1.274,-0.316c0.397,-0.211 0.7,-0.493 0.907,-0.848c0.208,-0.354 0.312,-0.73 0.312,-1.127c0,-0.452 -0.153,-0.895 -0.458,-1.329c-0.422,-0.599 -1.192,-1.32 -2.31,-2.164c-1.124,-0.849 -1.824,-1.463 -2.099,-1.842c-0.477,-0.635 -0.715,-1.323 -0.715,-2.062c0,-0.587 0.14,-1.122 0.422,-1.604c0.281,-0.483 0.676,-0.863 1.187,-1.142c0.51,-0.278 1.064,-0.417 1.663,-0.417c0.636,0 1.23,0.158 1.783,0.472c0.553,0.315 1.138,0.894 1.755,1.737l-1.1,0.835c-0.507,-0.673 -0.939,-1.116 -1.297,-1.33c-0.357,-0.213 -0.747,-0.32 -1.168,-0.32c-0.544,0 -0.989,0.165 -1.334,0.495c-0.345,0.33 -0.518,0.736 -0.518,1.219c0,0.293 0.061,0.577 0.184,0.852c0.122,0.275 0.345,0.575 0.669,0.898c0.177,0.172 0.757,0.621 1.741,1.348c1.167,0.861 1.968,1.628 2.402,2.301c0.434,0.672 0.651,1.347 0.651,2.025c0,0.978 -0.372,1.827 -1.114,2.548c-0.743,0.722 -1.645,1.082 -2.709,1.082c-0.819,0 -1.561,-0.218 -2.227,-0.655c-0.666,-0.437 -1.28,-1.169 -1.843,-2.196Z" style="fill:rgb(2,207,250);fill-rule:nonzero;"/><path d="M15.5,176.359c1.534,0 2.805,0.556 3.813,1.668c0.917,1.014 1.375,2.215 1.375,3.602c0,1.393 -0.484,2.611 -1.453,3.653c-0.968,1.042 -2.214,1.563 -3.735,1.563c-1.528,0 -2.776,-0.521 -3.744,-1.563c-0.969,-1.042 -1.453,-2.26 -1.453,-3.653c0,-1.381 0.458,-2.579 1.375,-3.593c1.008,-1.118 2.282,-1.677 3.822,-1.677Zm0,1.255c-1.063,0 -1.977,0.394 -2.741,1.183c-0.764,0.788 -1.146,1.741 -1.146,2.86c0,0.721 0.175,1.393 0.523,2.016c0.348,0.623 0.819,1.105 1.412,1.444c0.592,0.339 1.243,0.508 1.952,0.508c0.709,0 1.36,-0.169 1.952,-0.508c0.593,-0.339 1.064,-0.821 1.412,-1.444c0.348,-0.623 0.522,-1.295 0.522,-2.016c0,-1.119 -0.383,-2.072 -1.15,-2.86c-0.767,-0.789 -1.679,-1.183 -2.736,-1.183Z" style="fill:rgb(2,207,250);fill-rule:nonzero;"/><path d="M27.178,172.765l0,1.256c-0.471,-0.201 -0.874,-0.302 -1.21,-0.302c-0.251,0 -0.459,0.05 -0.624,0.151c-0.165,0.101 -0.269,0.217 -0.311,0.348c-0.043,0.132 -0.065,0.481 -0.065,1.05l0,1.347l2.081,0l0,1.1l-2.09,0l0,8.873l-1.283,0l0,-8.873l-1.311,0l0,-1.1l1.311,0l0,-1.558c0,-0.715 0.066,-1.225 0.197,-1.531c0.132,-0.305 0.355,-0.551 0.669,-0.738c0.315,-0.186 0.695,-0.279 1.141,-0.279c0.416,0 0.914,0.085 1.495,0.256Z" style="fill:rgb(2,207,250);fill-rule:nonzero;"/><path d="M30.083,172.912l1.293,0l0,3.703l2.034,0l0,1.1l-2.034,0l0,8.873l-1.293,0l0,-8.873l-1.751,0l0,-1.1l1.751,0l0,-3.703Z" style="fill:rgb(2,207,250);fill-rule:nonzero;"/><path d="M33.979,176.615l1.32,0l3.052,7.241l3.199,-7.241l0.229,0l3.19,7.241l3.107,-7.241l1.338,0l-4.326,9.973l-0.247,0l-3.172,-7.141l-3.199,7.141l-0.238,0l-4.253,-9.973Z" style="fill:rgb(2,207,250);fill-rule:nonzero;"/><path d="M60.863,176.615l0,9.973l-1.265,0l0,-1.714c-0.538,0.654 -1.141,1.146 -1.81,1.476c-0.669,0.33 -1.401,0.495 -2.196,0.495c-1.411,0 -2.616,-0.512 -3.616,-1.536c-0.999,-1.023 -1.498,-2.268 -1.498,-3.735c0,-1.436 0.504,-2.664 1.512,-3.685c1.008,-1.02 2.221,-1.53 3.639,-1.53c0.819,0 1.56,0.174 2.223,0.522c0.663,0.348 1.245,0.871 1.746,1.567l0,-1.833l1.265,0Zm-5.133,0.981c-0.715,0 -1.375,0.176 -1.98,0.527c-0.605,0.351 -1.086,0.845 -1.444,1.48c-0.357,0.636 -0.536,1.308 -0.536,2.017c0,0.703 0.18,1.375 0.541,2.016c0.36,0.642 0.845,1.142 1.453,1.499c0.608,0.358 1.26,0.536 1.957,0.536c0.702,0 1.369,-0.177 1.998,-0.531c0.629,-0.355 1.114,-0.834 1.453,-1.439c0.339,-0.605 0.509,-1.287 0.509,-2.044c0,-1.155 -0.381,-2.121 -1.142,-2.897c-0.76,-0.776 -1.697,-1.164 -2.809,-1.164Z" style="fill:rgb(2,207,250);fill-rule:nonzero;"/><path d="M63.264,176.615l1.311,0l0,1.458c0.391,-0.575 0.804,-1.004 1.238,-1.288c0.433,-0.284 0.886,-0.426 1.356,-0.426c0.355,0 0.734,0.113 1.137,0.339l-0.669,1.081c-0.269,-0.116 -0.495,-0.174 -0.679,-0.174c-0.427,0 -0.84,0.176 -1.237,0.527c-0.397,0.352 -0.7,0.897 -0.907,1.636c-0.159,0.569 -0.239,1.717 -0.239,3.447l0,3.373l-1.311,0l0,-9.973Z" style="fill:rgb(2,207,250);fill-rule:nonzero;"/><path d="M77.793,183.279l1.081,0.568c-0.354,0.697 -0.764,1.259 -1.228,1.687c-0.464,0.428 -0.987,0.753 -1.567,0.976c-0.581,0.223 -1.238,0.335 -1.971,0.335c-1.625,0 -2.897,-0.534 -3.813,-1.6c-0.917,-1.066 -1.375,-2.272 -1.375,-3.616c0,-1.265 0.388,-2.392 1.164,-3.382c0.984,-1.259 2.301,-1.888 3.951,-1.888c1.698,0 3.055,0.644 4.069,1.934c0.721,0.91 1.088,2.047 1.1,3.409l-8.964,0c0.024,1.161 0.394,2.113 1.109,2.856c0.715,0.742 1.598,1.113 2.649,1.113c0.507,0 1.001,-0.088 1.48,-0.266c0.48,-0.177 0.888,-0.412 1.224,-0.705c0.336,-0.294 0.7,-0.767 1.091,-1.421Zm0,-2.686c-0.171,-0.684 -0.42,-1.231 -0.747,-1.64c-0.327,-0.41 -0.76,-0.74 -1.297,-0.99c-0.538,-0.251 -1.103,-0.376 -1.696,-0.376c-0.978,0 -1.818,0.314 -2.521,0.944c-0.513,0.458 -0.901,1.146 -1.164,2.062l7.425,0Z" style="fill:rgb(2,207,250);fill-rule:nonzero;"/><g transform="matrix(1.56435,0,0,1.56435,-3.46832,-130.689)"><path d="M33.99,211.217l1.946,0c1.253,0 2.185,0.155 2.794,0.466c0.61,0.31 1.112,0.815 1.506,1.514c0.395,0.699 0.592,1.516 0.592,2.449c0,0.665 -0.11,1.275 -0.331,1.832c-0.221,0.556 -0.525,1.018 -0.914,1.385c-0.389,0.367 -0.81,0.621 -1.263,0.762c-0.453,0.141 -1.238,0.211 -2.355,0.211l-1.975,0l0,-8.619Zm1.635,1.582l0,5.431l0.762,0c0.75,0 1.294,-0.085 1.632,-0.257c0.337,-0.172 0.614,-0.461 0.829,-0.868c0.215,-0.406 0.322,-0.906 0.322,-1.5c0,-0.914 -0.256,-1.623 -0.768,-2.126c-0.461,-0.454 -1.201,-0.68 -2.22,-0.68l-0.557,0Z" style="fill:rgb(255,4,55);fill-rule:nonzero;"/><path d="M49.198,217.111l-5.139,0c0.074,0.453 0.272,0.814 0.595,1.081c0.322,0.268 0.733,0.402 1.233,0.402c0.598,0 1.111,-0.209 1.541,-0.627l1.348,0.633c-0.336,0.476 -0.738,0.829 -1.207,1.057c-0.469,0.229 -1.026,0.343 -1.67,0.343c-1,0 -1.815,-0.315 -2.444,-0.946c-0.628,-0.631 -0.943,-1.421 -0.943,-2.37c0,-0.973 0.314,-1.781 0.941,-2.423c0.626,-0.643 1.413,-0.964 2.358,-0.964c1.004,0 1.82,0.321 2.449,0.964c0.629,0.642 0.944,1.491 0.944,2.546l-0.006,0.304Zm-1.606,-1.259c-0.105,-0.356 -0.313,-0.645 -0.624,-0.868c-0.31,-0.222 -0.671,-0.334 -1.081,-0.334c-0.445,0 -0.836,0.125 -1.172,0.375c-0.211,0.157 -0.406,0.432 -0.586,0.827l3.463,0Z" style="fill:rgb(255,4,55);fill-rule:nonzero;"/><path d="M50.407,213.461l1.629,0l1.611,3.762l1.606,-3.762l1.623,0l-2.713,6.375l-1.037,0l-2.719,-6.375Z" style="fill:rgb(255,4,55);fill-rule:nonzero;"/><path d="M63.886,217.721l0.691,0.363c-0.226,0.445 -0.488,0.805 -0.785,1.078c-0.297,0.274 -0.631,0.482 -1.002,0.624c-0.371,0.143 -0.791,0.214 -1.26,0.214c-1.039,0 -1.851,-0.341 -2.437,-1.022c-0.586,-0.682 -0.879,-1.453 -0.879,-2.312c0,-0.809 0.248,-1.529 0.744,-2.162c0.629,-0.805 1.471,-1.207 2.526,-1.207c1.086,0 1.953,0.412 2.601,1.236c0.461,0.582 0.695,1.309 0.703,2.18l-5.73,0c0.015,0.742 0.252,1.35 0.709,1.825c0.457,0.475 1.021,0.712 1.693,0.712c0.324,0 0.64,-0.057 0.946,-0.17c0.307,-0.113 0.568,-0.264 0.783,-0.451c0.215,-0.188 0.447,-0.49 0.697,-0.908Zm0,-1.717c-0.109,-0.438 -0.269,-0.787 -0.478,-1.049c-0.209,-0.262 -0.485,-0.473 -0.829,-0.633c-0.343,-0.16 -0.705,-0.24 -1.084,-0.24c-0.625,0 -1.162,0.201 -1.611,0.604c-0.328,0.293 -0.576,0.732 -0.744,1.318l4.746,0Z" style="fill:rgb(255,4,55);fill-rule:nonzero;"/></g><path d="M119.036,202.981c1.534,0 2.805,0.556 3.813,1.669c0.917,1.014 1.375,2.215 1.375,3.602c0,1.393 -0.484,2.611 -1.453,3.653c-0.968,1.041 -2.213,1.562 -3.735,1.562c-1.527,0 -2.776,-0.521 -3.744,-1.562c-0.969,-1.042 -1.453,-2.26 -1.453,-3.653c0,-1.381 0.458,-2.579 1.375,-3.593c1.008,-1.119 2.282,-1.678 3.822,-1.678Zm0,1.256c-1.063,0 -1.977,0.394 -2.74,1.182c-0.764,0.789 -1.146,1.742 -1.146,2.86c0,0.721 0.174,1.394 0.522,2.017c0.349,0.623 0.819,1.104 1.412,1.444c0.593,0.339 1.243,0.508 1.952,0.508c0.709,0 1.36,-0.169 1.953,-0.508c0.592,-0.34 1.063,-0.821 1.411,-1.444c0.348,-0.623 0.523,-1.296 0.523,-2.017c0,-1.118 -0.384,-2.071 -1.151,-2.86c-0.767,-0.788 -1.679,-1.182 -2.736,-1.182Z" style="fill:rgb(255,4,55);fill-rule:nonzero;"/><path d="M127.564,203.238l1.274,0l0,1.833c0.508,-0.696 1.091,-1.219 1.751,-1.567c0.66,-0.349 1.396,-0.523 2.209,-0.523c1.418,0 2.631,0.511 3.639,1.531c1.008,1.021 1.513,2.249 1.513,3.685c0,1.466 -0.5,2.711 -1.499,3.735c-0.999,1.024 -2.205,1.535 -3.616,1.535c-0.795,0 -1.525,-0.165 -2.191,-0.495c-0.666,-0.33 -1.268,-0.822 -1.806,-1.475l0,5.362l-1.274,0l0,-13.621Zm5.133,0.981c-1.112,0 -2.048,0.388 -2.809,1.164c-0.761,0.776 -1.141,1.741 -1.141,2.896c0,0.758 0.169,1.439 0.508,2.044c0.34,0.605 0.825,1.085 1.458,1.439c0.632,0.355 1.3,0.532 2.003,0.532c0.69,0 1.339,-0.179 1.947,-0.536c0.609,-0.358 1.093,-0.857 1.453,-1.499c0.361,-0.641 0.541,-1.314 0.541,-2.016c0,-0.709 -0.179,-1.381 -0.536,-2.017c-0.358,-0.635 -0.839,-1.129 -1.444,-1.48c-0.605,-0.352 -1.265,-0.527 -1.98,-0.527Z" style="fill:rgb(255,4,55);fill-rule:nonzero;"/><path d="M149.686,209.902l1.081,0.568c-0.354,0.697 -0.763,1.259 -1.228,1.687c-0.464,0.427 -0.987,0.753 -1.567,0.976c-0.581,0.223 -1.238,0.334 -1.971,0.334c-1.625,0 -2.896,-0.533 -3.813,-1.599c-0.917,-1.066 -1.375,-2.272 -1.375,-3.616c0,-1.265 0.388,-2.393 1.164,-3.382c0.984,-1.259 2.301,-1.889 3.951,-1.889c1.699,0 3.055,0.645 4.069,1.934c0.722,0.911 1.088,2.047 1.1,3.41l-8.964,0c0.024,1.161 0.394,2.113 1.109,2.855c0.715,0.743 1.598,1.114 2.649,1.114c0.507,0 1.001,-0.089 1.48,-0.266c0.48,-0.177 0.888,-0.412 1.224,-0.706c0.336,-0.293 0.7,-0.766 1.091,-1.42Zm0,-2.686c-0.171,-0.684 -0.42,-1.231 -0.747,-1.641c-0.327,-0.409 -0.759,-0.739 -1.297,-0.99c-0.538,-0.25 -1.103,-0.375 -1.696,-0.375c-0.978,0 -1.818,0.314 -2.521,0.944c-0.513,0.458 -0.901,1.145 -1.164,2.062l7.425,0Z" style="fill:rgb(255,4,55);fill-rule:nonzero;"/><path d="M153.943,203.238l1.31,0l0,1.457c0.391,-0.574 0.804,-1.003 1.238,-1.287c0.434,-0.285 0.886,-0.427 1.356,-0.427c0.355,0 0.734,0.113 1.137,0.339l-0.669,1.082c-0.269,-0.116 -0.495,-0.174 -0.678,-0.174c-0.428,0 -0.841,0.176 -1.238,0.527c-0.397,0.351 -0.7,0.897 -0.907,1.636c-0.159,0.568 -0.239,1.717 -0.239,3.447l0,3.373l-1.31,0l0,-9.973Z" style="fill:rgb(255,4,55);fill-rule:nonzero;"/><path d="M9.265,91.124l0,-2.597l13.23,0l0,2.597l-5.286,0l0,18.79l-2.689,0l0,-18.79l-5.255,0Z" style="fill:white;fill-rule:nonzero;"/><path d="M24.731,93.385l2.719,0l4.645,12.924l-3.147,9.411l-2.597,0l2.994,-9.442l-4.614,-12.893Zm6.753,7.088l2.78,-7.088l2.689,0l-4.064,10.663l-0.275,0l-1.13,-3.575Z" style="fill:white;fill-rule:nonzero;"/><path d="M39.892,109.914l0,-16.529l2.597,0l0,2.261c0.53,-0.896 1.324,-1.558 2.383,-1.986c0.571,-0.224 1.131,-0.336 1.681,-0.336l0.55,0l-0.611,2.505c-1.121,0.02 -2.119,0.621 -2.995,1.803c-0.672,0.937 -1.008,1.904 -1.008,2.902l0,9.38l-2.597,0Z" style="fill:white;fill-rule:nonzero;"/><path d="M50.134,106.065c0,1.12 0.55,2.067 1.649,2.841c0.937,0.652 2.037,0.978 3.3,0.978l0,-2.383c-1.772,-0.041 -2.668,-0.713 -2.688,-2.017l0,-0.825c0.02,-0.448 0.142,-0.774 0.366,-0.978c0.245,-0.224 1.334,-0.57 3.269,-1.038c1.508,-0.367 2.526,-0.693 3.056,-0.978l0,3.514c0,1.324 -0.642,2.087 -1.925,2.291c-0.204,0.02 -0.397,0.031 -0.581,0.031l0,2.383c1.426,-0.021 2.547,-0.377 3.361,-1.07c0.632,0.713 1.457,1.07 2.475,1.07l0,-2.414c-0.529,-0.041 -0.804,-0.377 -0.825,-1.008l0,-8.372c0,-1.304 -0.499,-2.444 -1.497,-3.422c-0.937,-0.896 -2.108,-1.344 -3.514,-1.344l0,2.352c0.958,0 1.671,0.387 2.139,1.161c0.245,0.408 0.367,0.856 0.367,1.345l0,0.58c0,0.509 -1.212,1.1 -3.636,1.772c-2.18,0.611 -3.432,0.998 -3.758,1.161c-1.039,0.611 -1.558,1.579 -1.558,2.903l0,1.467Zm0.213,-8.586l2.261,0.856c0,-1.141 0.469,-1.936 1.406,-2.384c0.346,-0.163 0.713,-0.244 1.1,-0.244l0,-2.383c-1.406,0 -2.607,0.509 -3.606,1.527c-0.774,0.774 -1.161,1.65 -1.161,2.628Z" style="fill:white;fill-rule:nonzero;"/><path d="M66.15,109.914l0,-12.068c0,-0.978 0.438,-1.935 1.314,-2.872c1.079,-1.1 2.413,-1.65 4.002,-1.65l0,2.536c-1.039,0 -1.833,0.407 -2.383,1.222c-0.224,0.346 -0.336,0.703 -0.336,1.069l0,11.763l-2.597,0Zm6.66,-14.054l0,-2.536c1.895,0 3.372,0.764 4.431,2.291c0.57,0.795 0.855,1.538 0.855,2.231l0,12.068l-2.597,0l0,-11.763c0,-0.631 -0.316,-1.191 -0.947,-1.68c-0.509,-0.408 -1.09,-0.611 -1.742,-0.611Z" style="fill:white;fill-rule:nonzero;"/><path d="M81.341,96.043l0,-2.475l2.017,0l0,-5.286l2.597,0l0,5.286l1.955,0l0,2.506l-1.955,0l0,8.768c0,1.447 0.59,2.251 1.772,2.414c0.224,0.041 0.448,0.061 0.672,0.061l0.428,0l0.58,2.597l-1.1,0c-2.505,-0.02 -4.043,-0.957 -4.613,-2.811c-0.204,-0.692 -0.306,-1.548 -0.306,-2.566l-0.03,-8.494l-2.017,0Z" style="fill:white;fill-rule:nonzero;"/><path d="M101.122,109.914l0,-21.387l2.658,0l0,21.387l-2.658,0Zm4.185,0l0,-2.627c2.078,0 3.473,-0.326 4.186,-0.978c0.611,-0.57 0.917,-1.375 0.917,-2.414l0,-9.349c0,-1.793 -1.029,-2.872 -3.086,-3.239c-0.57,-0.102 -1.243,-0.153 -2.017,-0.153l0,-2.627c3.626,0 5.999,1.059 7.119,3.177c0.449,0.815 0.673,1.762 0.673,2.842l0,9.349c0,3.83 -2.333,5.836 -6.997,6.019c-0.265,0 -0.53,0 -0.795,0Z" style="fill:white;fill-rule:nonzero;"/><path d="M116.863,106.065c0,1.12 0.55,2.067 1.65,2.841c0.937,0.652 2.037,0.978 3.299,0.978l0,-2.383c-1.772,-0.041 -2.668,-0.713 -2.688,-2.017l0,-0.825c0.02,-0.448 0.142,-0.774 0.366,-0.978c0.245,-0.224 1.335,-0.57 3.27,-1.038c1.507,-0.367 2.525,-0.693 3.055,-0.978l0,3.514c0,1.324 -0.642,2.087 -1.925,2.291c-0.204,0.02 -0.397,0.031 -0.58,0.031l0,2.383c1.425,-0.021 2.546,-0.377 3.361,-1.07c0.631,0.713 1.456,1.07 2.474,1.07l0,-2.414c-0.529,-0.041 -0.804,-0.377 -0.825,-1.008l0,-8.372c0,-1.304 -0.499,-2.444 -1.497,-3.422c-0.937,-0.896 -2.108,-1.344 -3.513,-1.344l0,2.352c0.957,0 1.67,0.387 2.138,1.161c0.245,0.408 0.367,0.856 0.367,1.345l0,0.58c0,0.509 -1.212,1.1 -3.636,1.772c-2.179,0.611 -3.432,0.998 -3.758,1.161c-1.039,0.611 -1.558,1.579 -1.558,2.903l0,1.467Zm0.214,-8.586l2.261,0.856c0,-1.141 0.468,-1.936 1.405,-2.384c0.346,-0.163 0.713,-0.244 1.1,-0.244l0,-2.383c-1.405,0 -2.607,0.509 -3.605,1.527c-0.774,0.774 -1.161,1.65 -1.161,2.628Z" style="fill:white;fill-rule:nonzero;"/><path d="M131.993,93.385l2.841,0l4.797,14.055l-0.855,2.474l-1.406,0l-5.377,-16.529Zm6.722,8.035l2.78,-8.035l2.872,0l-4.002,11.763l-0.367,0l-1.283,-3.728Z" style="fill:white;fill-rule:nonzero;"/><path d="M147.581,91.124c0,-0.632 0.296,-1.08 0.887,-1.345c0.203,-0.081 0.407,-0.122 0.611,-0.122c0.611,0 1.059,0.285 1.344,0.856c0.081,0.203 0.122,0.407 0.122,0.611c0,0.611 -0.285,1.059 -0.855,1.344c-0.204,0.082 -0.408,0.122 -0.611,0.122c-0.632,0 -1.09,-0.285 -1.375,-0.855c-0.082,-0.204 -0.123,-0.407 -0.123,-0.611Zm0.214,18.79l0,-16.101l2.567,0l0,16.101l-2.567,0Z" style="fill:white;fill-rule:nonzero;"/><path d="M154.126,105.576l2.414,-0.459c0,0.917 0.478,1.64 1.436,2.17c0.468,0.224 0.916,0.346 1.344,0.366l0,2.414c-1.976,0 -3.452,-0.713 -4.43,-2.139c-0.509,-0.753 -0.764,-1.537 -0.764,-2.352Zm0.153,-7.516c0,-1.854 0.845,-3.229 2.536,-4.125c0.815,-0.428 1.629,-0.642 2.444,-0.642l0,2.383c-0.937,0 -1.66,0.387 -2.169,1.161c-0.265,0.387 -0.397,0.795 -0.397,1.223c0,0.651 0.509,1.181 1.527,1.588c0.774,0.326 2.271,0.754 4.492,1.284c1.385,0.285 2.373,0.967 2.963,2.047c0.306,0.57 0.459,1.212 0.459,1.925c0,1.955 -0.785,3.401 -2.353,4.338c-0.917,0.55 -1.966,0.825 -3.147,0.825l0,-2.414c0.937,0 1.721,-0.326 2.353,-0.977c0.448,-0.469 0.672,-1.019 0.672,-1.65c0,-0.815 -0.805,-1.467 -2.414,-1.956c-0.407,-0.122 -1.059,-0.295 -1.955,-0.519c-0.958,-0.224 -1.65,-0.407 -2.078,-0.55c-1.548,-0.611 -2.485,-1.538 -2.811,-2.78c-0.081,-0.367 -0.122,-0.754 -0.122,-1.161Zm6.324,-2.353l0,-2.414c1.752,0 3.168,0.652 4.247,1.956c0.673,0.835 1.009,1.711 1.009,2.627l-2.414,0.397c0,-1.12 -0.611,-1.904 -1.833,-2.352c-0.367,-0.143 -0.703,-0.214 -1.009,-0.214Z" style="fill:white;fill-rule:nonzero;"/><circle cx="124.36" cy="152.485" r="9.738" style="fill:rgb(255,4,55);"/></g></svg>