<!-- Generated by IcoMoon.io -->
<svg version="1.1" xmlns="http://www.w3.org/2000/svg" width="94" height="94" viewBox="0 0 32 32">
<title>muscular-man-flexing-silhouette</title>
<path d="M21.6 0.061c0 0 1.205-0.381 1.672 0.767 0 0 1.788 1.985 1.982 3.416 0 0 0.074 0.437-0.351 0.673-0.317 0.173-0.749 0.603-1.034 0.951 0 0-0.959 1.206-2.697 1.206 0 0-0.23-0.025-0.717 1.103-0.247 0.575-0.922 1.442-1.418 2.109-0.301 0.403-0.706 1.473-0.816 1.793-0.241 0.691-0.312 2.405-0.059 2.892 0 0 0.796 1.883 1.011 2.718 0.014 0.051 0.384 1.145 0.198 2.723-0.018 0.153-0.121 0.753-0.16 1.108-0.057 0.508-0.038 1.558 0.156 2.038 0.186 0.459 0.746 0.883 0.903 2.077 0.158 1.166-0.178 2.851-0.048 3.865 0.073 0.567 0.329 1.377 1.419 1.897 0 0 1.035 0.251 0.57 0.601 0 0-1.193 0.045-1.893-0.213 0 0-1.192 0.095-1.348-0.347 0 0 0.003-0.346 0.13-0.627 0 0-0.262-1.734-1.116-2.875-0.616-0.823-0.75-1.165-0.436-4.116 0 0-0.973-0.615-1.548-2.836-0.169-0.654-0.428-1.78-0.637-2.617 0 0-1.494 3.135-1.366 4.711 0 0 0.711 1.615 0.805 2.23 0.080 0.525 0.063 1.373-0.157 2.115-0.228 0.768 0.261 2.553 0.416 3.158 0 0 0.386 1.044-0.362 1.020 0 0-1.296-0.163-1.711 0.14 0 0-1.478 0.182-1.786 0.045 0 0-0.493-0.185 0.337-0.556 0 0 0.882-0.023 1.191-0.58 0 0 0.39-0.465 0.518-0.537 0 0-0.543-1.357-1.067-3.32-0.2-0.756-0.335-2.498-0.457-3.268-0.078-0.479 0.177-1.606 0.023-2.073-0.404-1.238-1.027-2.18-0.054-5.155 0 0 0.529-1.249 0.83-1.952 0.41-0.959 0.44-2.695 0-4.111 0 0-0.879-1.255-0.931-2.46 0 0 0.105-0.788-1.167-0.766 0 0-0.957 0.21-2.537-1.257l-0.933-0.695c0 0-0.494-0.244 0.023-1.603 0 0 0.897-1.706 1.376-2.205l0.336-0.7c0 0 0.298-0.777 1.581-0.439 0 0 0.737 0.105 0.62 0.544 0 0 0.181 1.38-0.258 1.207 0 0-0.209-0.114-0.259-0.394 0 0-0.648-0.031-0.792-0.22 0 0-0.337 1.056-0.503 1.242 0 0 0.167 1.507 0.024 1.811 0 0 1.348-0.697 2.204 0.524 0 0 1.658-0.499 2.319 0.394 0 0 1.128 0.851 1.306-0.174l-0.024-0.617c0 0-0.157-0.371-0.194-0.639 0 0-0.285 0.174-0.377-0.594 0 0-0.167-0.499 0.182-0.418 0 0-0.584-1.52 1.009-1.938 0 0 2.072-0.474 1.89 1.788 0 0 0.752-0.176 0 1.137 0 0-0.223-0.051-0.181 0.049 0.027 0.058 0.067 0.686 0.067 0.686s0.051 0.987 0.906 0.824c0 0 1.527-1.070 2.266-0.465 0 0 0.972-1.231 2.281-0.579 0 0 0.414 0.068 0.532-0.29 0 0-0.818-0.663-0.621-2.474 0 0-0.064-0.639-0.352-0.489l-0.287 0.055c0 0-0.063 0.469-0.905 0.424 0 0 0.030 0.162-0.010 0.196-0.132 0.112-0.576 0.089-0.727 0-0.346-0.202-0.381-1.2 0.415-1.429l0.8-0.208z"></path>
</svg>
