<!-- Generated by IcoMoon.io -->
<svg version="1.1" xmlns="http://www.w3.org/2000/svg" width="100" height="94" viewBox="0 0 38 32">
<title>telescope</title>
<path fill="color:rgb(255, 255, 255)" d="M16.204 23.466v0.084h-5.236v-0.084c0-0.728 0.592-1.32 1.32-1.32h2.597c0.727 0 1.319 0.592 1.319 1.32z"></path>
<path fill="color:rgb(255, 255, 255)" d="M7.646 16.565l-5.14 2.054c-0.013 0.005-0.041 0.076-0.086-0.037l-1.081-2.706 0.036-0.085 5.129-2.045c0.005 0 0.045 0.001 0.061 0.041l1.139 2.747-0.059 0.031z"></path>
<path fill="color:rgb(255, 255, 255)" d="M15.060 15.49l-5.353 2.221c-0.013 0.005-0.040 0.077-0.087-0.036l-0.706-1.702c-0.001-0.001-0.001-0.003-0.001-0.004l-1.117-2.693c-0-0.001-0.001-0.001-0.001-0.003l-0.759-1.831c-0.012-0.028 0.007-0.073 0.036-0.085l5.394-2.232c0.004 0 0.043 0.001 0.060 0.040l2.569 6.24c0.014 0.034-0.002 0.072-0.035 0.085z"></path>
<path fill="color:rgb(255, 255, 255)" d="M26.315 12.43l-9.558 3.346c-0.030 0.010-0.065 0.003-0.081-0.037l-2.917-7.083c0 0 0 0-0-0.001l-0.386-0.938c-0.013-0.033 0-0.070 0.032-0.085l9.109-4.308c0.007 0 0.044 0.002 0.061 0.040l3.779 8.977-0.038 0.087z"></path>
<path fill="#ffab00" d="M27.754 2.963c1.361 0 2.464 1.104 2.464 2.464 0-1.36 1.104-2.464 2.464-2.464-1.36 0-2.463-1.103-2.463-2.463 0 1.36-1.102 2.463-2.464 2.463z"></path>
<path fill="#ffab00" d="M32.407 8.984c1.361 0 2.464 1.104 2.464 2.464 0-1.36 1.104-2.464 2.463-2.464-1.359 0-2.463-1.102-2.463-2.462 0 1.36-1.102 2.462-2.464 2.462z"></path>
<path fill="#ffab00" d="M27.754 15.971c1.361 0 2.464 1.104 2.464 2.464 0-1.361 1.104-2.464 2.464-2.464-1.36 0-2.463-1.102-2.463-2.463 0 1.361-1.102 2.463-2.464 2.463z"></path>
<path fill="color:rgb(255, 255, 255)" d="M27.582 11.826l-3.779-8.978c-0.3-0.712-1.189-1.053-1.888-0.721l-9.081 4.301c-0.557 0.264-0.855 0.85-0.784 1.434-0.040 0.012-0.081 0.020-0.12 0.036l-5.368 2.227c-0.345 0.143-0.614 0.412-0.757 0.757s-0.143 0.726 0 1.070l0.227 0.546c-0.015 0.006-0.031 0.007-0.046 0.013l-5.105 2.040c-0.347 0.138-0.62 0.404-0.767 0.747s-0.152 0.724-0.013 1.071l1.081 2.706c0.214 0.535 0.724 0.88 1.3 0.88 0.178 0 0.353-0.033 0.519-0.1l5.14-2.054c0.026-0.010 0.049-0.027 0.075-0.038l0.174 0.42c0.217 0.525 0.725 0.864 1.293 0.864 0.184 0 0.363-0.036 0.535-0.107l2.701-1.12v2.992h-0.632c-1.463 0-2.653 1.19-2.653 2.653v0.562l-4.28 6.956c-0.193 0.314-0.095 0.725 0.218 0.917 0.109 0.067 0.229 0.099 0.349 0.099 0.224 0 0.442-0.113 0.568-0.317l4.184-6.8h2.245v6.45c0 0.368 0.299 0.667 0.667 0.667s0.667-0.298 0.667-0.667v-6.45h2.245l4.184 6.8c0.126 0.204 0.344 0.317 0.568 0.317 0.119 0 0.24-0.032 0.349-0.099 0.314-0.193 0.411-0.604 0.218-0.917l-4.28-6.956v-0.562c0-1.463-1.19-2.653-2.652-2.653h-0.632v-3.545l1.319-0.547c0.048-0.020 0.089-0.048 0.134-0.072 0.26 0.287 0.627 0.464 1.030 0.464 0.158 0 0.313-0.027 0.462-0.079l9.557-3.345c0.363-0.128 0.661-0.402 0.817-0.754s0.16-0.756 0.010-1.109zM16.204 23.466v0.084h-5.236v-0.084c0-0.728 0.592-1.32 1.32-1.32h2.597c0.727 0 1.319 0.592 1.319 1.32zM7.646 16.565l-5.14 2.054c-0.013 0.005-0.041 0.076-0.086-0.037l-1.081-2.706 0.036-0.085 5.129-2.045c0.005 0 0.045 0.001 0.061 0.041l1.139 2.747-0.059 0.031zM15.060 15.49l-5.353 2.221c-0.013 0.005-0.040 0.078-0.087-0.036l-0.706-1.702c-0.001-0.001-0.001-0.003-0.001-0.004l-1.117-2.693c-0-0.001-0.001-0.001-0.001-0.003l-0.759-1.831c-0.012-0.028 0.007-0.073 0.036-0.085l5.394-2.232c0.004 0 0.043 0.001 0.060 0.040l2.569 6.24c0.014 0.034-0.002 0.072-0.035 0.085zM26.315 12.43l-9.558 3.346c-0.031 0.010-0.065 0.003-0.081-0.037l-2.917-7.083c0 0 0 0-0-0.001l-0.386-0.938c-0.013-0.033 0-0.070 0.032-0.085l9.109-4.308c0.007 0 0.044 0.002 0.060 0.040l3.779 8.977-0.038 0.087z"></path>
<path fill="#43525b" d="M27.754 3.463c1.083 0 1.964 0.881 1.964 1.964 0 0.276 0.224 0.5 0.5 0.5s0.5-0.224 0.5-0.5c0-1.083 0.881-1.964 1.964-1.964 0.276 0 0.5-0.224 0.5-0.5s-0.224-0.5-0.5-0.5c-1.083 0-1.964-0.881-1.964-1.963 0-0.276-0.224-0.5-0.5-0.5s-0.5 0.224-0.5 0.5c0 1.082-0.881 1.963-1.964 1.963-0.276 0-0.5 0.224-0.5 0.5s0.224 0.5 0.5 0.5zM30.218 2.145c0.217 0.323 0.495 0.602 0.818 0.818-0.323 0.217-0.601 0.495-0.818 0.818-0.216-0.323-0.495-0.601-0.818-0.818 0.323-0.216 0.602-0.495 0.818-0.818z"></path>
<path fill="#43525b" d="M37.334 8.484c-1.082 0-1.963-0.88-1.963-1.962 0-0.276-0.224-0.5-0.5-0.5s-0.5 0.224-0.5 0.5c0 1.082-0.881 1.962-1.964 1.962-0.276 0-0.5 0.224-0.5 0.5s0.224 0.5 0.5 0.5c1.083 0 1.964 0.881 1.964 1.964 0 0.276 0.224 0.5 0.5 0.5s0.5-0.224 0.5-0.5c0-1.083 0.881-1.964 1.963-1.964 0.276 0 0.5-0.224 0.5-0.5s-0.224-0.5-0.5-0.5zM34.871 9.802c-0.216-0.324-0.495-0.602-0.818-0.818 0.323-0.216 0.602-0.494 0.818-0.817 0.217 0.323 0.495 0.601 0.818 0.817-0.323 0.217-0.601 0.495-0.818 0.818z"></path>
<path fill="#43525b" d="M32.681 15.471c-1.083 0-1.964-0.881-1.964-1.963 0-0.276-0.224-0.5-0.5-0.5s-0.5 0.224-0.5 0.5c0 1.082-0.881 1.963-1.964 1.963-0.276 0-0.5 0.224-0.5 0.5s0.224 0.5 0.5 0.5c1.083 0 1.964 0.881 1.964 1.964 0 0.276 0.224 0.5 0.5 0.5s0.5-0.224 0.5-0.5c0-1.083 0.881-1.964 1.964-1.964 0.276 0 0.5-0.224 0.5-0.5s-0.224-0.5-0.5-0.5zM30.218 16.789c-0.216-0.324-0.495-0.602-0.818-0.818 0.323-0.216 0.602-0.495 0.818-0.818 0.217 0.323 0.495 0.602 0.818 0.818-0.324 0.217-0.602 0.495-0.818 0.818z"></path>
</svg>
