<!-- Generated by IcoMoon.io -->
<svg version="1.1" xmlns="http://www.w3.org/2000/svg" width="43" height="32" viewBox="0 0 43 32">
<title>Stars</title>
<path fill="#1d7ed0" d="M39.209 11.404l3.079 0.696c0.505 0.139 0.505 0.855 0 0.993l-3.079 0.696c-0.259 0.063-0.461 0.243-0.533 0.473l-0.846 3.289c-0.139 0.505-0.855 0.505-0.994 0l-0.846-3.289c-0.071-0.23-0.273-0.409-0.532-0.473l-3.079-0.696c-0.505-0.139-0.505-0.855 0-0.994l3.079-0.695c0.259-0.063 0.461-0.243 0.533-0.473l0.846-3.289c0.139-0.505 0.855-0.505 0.994 0l0.846 3.289c0.071 0.231 0.274 0.41 0.533 0.473z"></path>
<path fill="#1d7ed0" d="M7.209 25.474l3.079 0.696c0.505 0.139 0.505 0.855 0 0.993l-3.079 0.696c-0.259 0.063-0.461 0.243-0.533 0.473l-0.846 3.289c-0.139 0.505-0.855 0.505-0.994 0l-0.846-3.289c-0.071-0.23-0.273-0.409-0.532-0.473l-3.079-0.696c-0.505-0.139-0.505-0.855 0-0.994l3.079-0.695c0.259-0.063 0.461-0.243 0.533-0.473l0.846-3.289c0.139-0.505 0.855-0.505 0.994 0l0.846 3.289c0.071 0.231 0.274 0.41 0.533 0.473z"></path>
<path fill="#f2b430" d="M26.667 2.070l1.539 0.348c0.253 0.069 0.253 0.427 0 0.497l-1.539 0.348c-0.129 0.032-0.231 0.121-0.266 0.237l-0.423 1.644c-0.069 0.253-0.427 0.253-0.497 0l-0.423-1.644c-0.035-0.115-0.137-0.205-0.266-0.237l-1.54-0.348c-0.252-0.069-0.252-0.427 0-0.497l1.54-0.348c0.129-0.032 0.231-0.121 0.266-0.237l0.423-1.645c0.069-0.252 0.427-0.252 0.497 0l0.423 1.645c0.036 0.115 0.137 0.205 0.267 0.237z"></path>
<path fill="#1d7ed0" d="M30.938 23.404l1.539 0.348c0.253 0.069 0.253 0.427 0 0.497l-1.539 0.348c-0.129 0.032-0.231 0.121-0.266 0.237l-0.423 1.644c-0.069 0.253-0.427 0.253-0.497 0l-0.423-1.644c-0.035-0.115-0.137-0.205-0.266-0.237l-1.54-0.348c-0.252-0.069-0.252-0.427 0-0.497l1.54-0.348c0.129-0.032 0.231-0.121 0.266-0.237l0.423-1.645c0.069-0.252 0.427-0.252 0.497 0l0.423 1.645c0.036 0.115 0.137 0.205 0.267 0.237z"></path>
<path fill="#f2b430" d="M23.802 29.035l0.77 0.174c0.126 0.035 0.126 0.214 0 0.249l-0.77 0.174c-0.065 0.015-0.115 0.061-0.133 0.118l-0.211 0.822c-0.035 0.127-0.214 0.127-0.249 0l-0.211-0.822c-0.018-0.057-0.068-0.103-0.133-0.118l-0.769-0.174c-0.127-0.035-0.127-0.214 0-0.249l0.769-0.174c0.065-0.016 0.115-0.061 0.133-0.118l0.211-0.823c0.035-0.126 0.214-0.126 0.249 0l0.211 0.823c0.018 0.057 0.069 0.102 0.133 0.118z"></path>
<path fill="#f2b430" d="M12.469 3.702l0.77 0.174c0.126 0.035 0.126 0.214 0 0.249l-0.77 0.174c-0.065 0.015-0.115 0.061-0.133 0.118l-0.211 0.822c-0.035 0.127-0.214 0.127-0.249 0l-0.211-0.822c-0.018-0.057-0.068-0.103-0.133-0.118l-0.769-0.174c-0.127-0.035-0.127-0.214 0-0.249l0.769-0.174c0.065-0.016 0.115-0.061 0.133-0.118l0.211-0.823c0.035-0.126 0.214-0.126 0.249 0l0.211 0.823c0.018 0.057 0.069 0.102 0.133 0.118z"></path>
<path fill="#f2b430" d="M7.333 11.333c0 0.737-0.597 1.333-1.333 1.333s-1.333-0.597-1.333-1.333c0-0.737 0.597-1.333 1.333-1.333s1.333 0.597 1.333 1.333z"></path>
<path fill="#f2b430" d="M20.667 15c-2.755 0-4.91-0.981-6.828-2.042l0.323-0.583c1.84 1.017 3.901 1.959 6.505 1.959 2.592 0 3.834-0.623 3.847-0.629l0.308 0.591c-0.055 0.029-1.378 0.705-4.155 0.705z"></path>
<path fill="#f2b430" d="M15.462 22.308l-0.257-0.615c1.835-0.767 5.72-0.555 6.935 0.005l-0.279 0.606c-1.091-0.503-4.733-0.693-6.399 0.005z"></path>
<path fill="#f2b430" d="M21.002 18.75c-1.273 0-2.656-0.327-3.856-1.141-0.616-0.418-1.175-0.871-1.715-1.308-0.915-0.741-1.779-1.441-2.913-2.002l0.295-0.598c1.201 0.595 2.134 1.351 3.037 2.082 0.529 0.429 1.077 0.872 1.669 1.275 1.856 1.26 4.195 1.225 5.691 0.633l1.449-0.575 0.245 0.62-1.449 0.575c-0.691 0.274-1.545 0.441-2.454 0.441z"></path>
<path fill="#1d7ed0" d="M18.667 10c-3.682 0-6.667 2.985-6.667 6.667s2.985 6.667 6.667 6.667c3.682 0 6.667-2.985 6.667-6.667s-2.985-6.667-6.667-6.667zM18.667 10.667c3.309 0 6 2.691 6 6s-2.691 6-6 6c-3.309 0-6-2.691-6-6s2.691-6 6-6z"></path>
</svg>
